<svg height="512" viewBox="0 0 128 128" width="512" xmlns="http://www.w3.org/2000/svg" data-name="Layer 1">
    <path d="m122.737 54.363-31.41-31.41a1.749 1.749 0 0 0 -2.475 0l-9.161 9.17a1.745 1.745 0 0 0 -.483 1.534 33.9 33.9 0 0 1 -6.08.357 59.911 59.911 0 0 0 -7.693.38 22.726 22.726 0 0 0 -5.715 1.453 16.037 16.037 0 0 0 -2.895 1.55c-.153.108-.31.214-.466.32-4.2-1.085-6.955-1.864-8.754-2.418l.7-.7a1.75 1.75 0 0 0 0-2.474l-9.16-9.17a1.75 1.75 0 0 0 -1.237-.513 1.75 1.75 0 0 0 -1.237.513l-31.408 31.408a1.748 1.748 0 0 0 0 2.474l9.16 9.163a1.748 1.748 0 0 0 2.477 0l1.061-1.06a56.8 56.8 0 0 0 7.17 10.668 1.764 1.764 0 0 0 .161.2l.069.07.013.01c.04.046.082.089.124.133v.006c.016.018.032.033.049.051.226.244.451.465.669.661l.03.03c.061.065.123.127.186.185l26.521 26.531a7.107 7.107 0 0 0 12.078-4.095 7.109 7.109 0 0 0 2.359.4 7.144 7.144 0 0 0 7.025-5.983 7.135 7.135 0 0 0 9.759-5.641 7.131 7.131 0 0 0 7.373-1.688 7.065 7.065 0 0 0 2.071-5.115c8.151-4.7 14.032-12.728 16.438-16.408l1.044 1.045a1.75 1.75 0 0 0 2.473 0l9.16-9.16a1.748 1.748 0 0 0 0-2.474zm-113.762 1.237 28.935-28.934 6.69 6.693-1.51 1.509-25.947 25.932-1.48 1.479zm80.103 28.4a3.713 3.713 0 0 1 -5.12.006l-1.148-1.151v-.005l-.105-.1-9.809-9.809a1.75 1.75 0 0 0 -2.475 2.475l9.325 9.324c.007.008.011.016.019.024a2.936 2.936 0 0 1 .313.39c.036.047.072.1.1.148a3.587 3.587 0 0 1 .321.65 1.835 1.835 0 0 1 .09.28 3.61 3.61 0 0 1 -.915 3.548 3.7 3.7 0 0 1 -5.118 0l-.706-.7-10.123-10.136a1.75 1.75 0 0 0 -2.475 2.475l8.656 8.655c.013.015.023.032.037.046a3.6 3.6 0 0 1 -.008 5.108 3.686 3.686 0 0 1 -5.11-.006l-.289-.289-11.483-11.484a1.75 1.75 0 0 0 -2.475 2.474l9.956 9.956.006.008a3.627 3.627 0 0 1 .006 5.11 3.714 3.714 0 0 1 -5.12.006l-26.55-26.56a.891.891 0 0 0 -.077-.074c-.023-.024-.1-.106-.126-.129-.191-.18-.389-.38-.608-.607-.034-.034-.066-.069-.1-.11l-.13-.142-.006-.006c-3.164-3.435-5.894-8.433-7.287-11.019l3.056-3.056 21.227-21.222c1.69.582 4.29 1.342 7.763 2.269-1.346.967-2.658 1.95-3.833 2.923-.2.154-.38.307-.541.449-.216.181-.428.367-.638.552l-.315.275c-.306.275-.6.559-.91.857-.28.279-.538.547-.814.836l-.318.347-.07.081c-.127.147-.252.3-.324.39-.149.175-.282.339-.368.464-.18.24-.346.469-.445.63s-.209.316-.3.471a5.67 5.67 0 0 0 -.286.526 5.178 5.178 0 0 0 -.228.494 4.716 4.716 0 0 0 -.2.541c-.021.061-.033.122-.051.183l-.005.019c-.031.1-.066.206-.087.312a5.013 5.013 0 0 0 -.111 1.358v.027s0 .032.006.048c.01.131.025.265.048.4 0 .016 0 .032.007.048a4.22 4.22 0 0 0 .122.5l.01.032a4.489 4.489 0 0 0 .188.489c.01.021.019.042.029.064a4.456 4.456 0 0 0 .3.539l.005.007a5.162 5.162 0 0 0 .372.491c.037.044.074.088.113.131a5.931 5.931 0 0 0 .463.461c.043.038.092.076.138.114q.228.192.495.376c.082.058.168.115.257.172.205.131.423.26.66.385.031.015.054.033.085.049a8.418 8.418 0 0 0 1.152.475c.014 0 .027.013.041.017a8.182 8.182 0 0 0 .829.231l.142.029c.126.027.252.058.376.078.042.009.152.032.194.038.313.046.627.071.989.1a13.057 13.057 0 0 0 3.471-.315c.251-.046.492-.11.779-.188a19.3 19.3 0 0 0 2.116-.687 28.894 28.894 0 0 0 3.889-1.841c.021-.012.037-.028.057-.04a42.42 42.42 0 0 0 5.1-3.376c.044 1.287.061 2.486.069 3.435a1.751 1.751 0 0 0 .513 1.222l23.319 23.32a3.64 3.64 0 0 1 -.002 5.114zm3.572-6.131a7.053 7.053 0 0 0 -1.1-1.453l-22.818-22.816c0-.374-.011-.782-.019-1.2a33.87 33.87 0 0 0 8.957 1.186 1.75 1.75 0 0 0 0-3.5c-2.179.03-8.983-.481-11.289-2.683a1.752 1.752 0 0 0 -2.35-.06 36.965 36.965 0 0 1 -5.684 3.918c-.013.006-.026.009-.038.016a25.383 25.383 0 0 1 -3.414 1.619l-.058.022a16.257 16.257 0 0 1 -1.783.573c-.06.017-.121.034-.185.05-.149.037-.3.062-.444.093-.354.075-.7.128-1.03.167-.119.013-.238.027-.355.036-.264.021-.513.024-.758.022-.216 0-.436 0-.646-.017h-.023a6.283 6.283 0 0 1 -.721-.134c-.145-.032-.292-.063-.431-.107a5.2 5.2 0 0 1 -.761-.301c-.021-.01-.047-.018-.068-.028-.057-.029-.1-.057-.149-.086-.139-.076-.275-.152-.39-.228-.068-.045-.117-.088-.175-.131a2.985 2.985 0 0 1 -.233-.192c-.048-.045-.089-.089-.128-.132a1.565 1.565 0 0 1 -.151-.2c-.023-.037-.052-.075-.07-.111a.9.9 0 0 1 -.087-.3c0-.02 0-.039 0-.058a1.739 1.739 0 0 1 .053-.465l.05-.152a1.3 1.3 0 0 1 .056-.162c.017-.035.031-.07.045-.106a1.5 1.5 0 0 1 .085-.183c.019-.034.036-.07.053-.106a1.855 1.855 0 0 1 .11-.2c.062-.1.124-.2.239-.372.1-.153.21-.3.365-.514.059-.085.126-.161.242-.3.086-.111.18-.22.26-.316l.3-.323c.186-.193.379-.391.57-.586.1-.1.194-.194.3-.292.059-.056.117-.109.175-.165a88.631 88.631 0 0 1 9.683-7.308c4-2.72 9.486-2.745 14.328-2.766h.667.622c.195 0 .387-.006.579-.009.272 0 .541-.009.805-.016.189-.005.376-.012.561-.019.261-.01.517-.024.771-.039.171-.01.344-.02.512-.033.293-.023.577-.053.857-.085.114-.013.233-.023.345-.038.373-.05.732-.112 1.08-.186.12-.026.233-.059.35-.088.232-.057.46-.118.679-.189.13-.042.256-.089.381-.137.1-.037.2-.067.3-.107l25.862 25.861c-1.879 2.904-7.357 10.78-14.884 15.433zm19.688-15.579-28.938-28.931 6.687-6.693 28.938 28.934z"/>
</svg>