<svg id="Capa_1" enable-background="new 0 0 341.323 341.323" height="512" viewBox="0 0 341.323 341.323" width="512" xmlns="http://www.w3.org/2000/svg"><g><g><g><g><path d="m47.973 314.651c-2.949 0-5.333-2.384-5.333-5.333v-282.673c0-2.949 2.384-5.333 5.333-5.333s5.333 2.384 5.333 5.333v282.672c0 2.95-2.384 5.334-5.333 5.334z"/></g><g><path d="m240.026 314.651c-2.949 0-5.333-2.384-5.333-5.333v-282.673c0-2.949 2.384-5.333 5.333-5.333s5.333 2.384 5.333 5.333v282.672c0 2.95-2.384 5.334-5.333 5.334z"/></g><g><path d="m213.386 245.451h-15.989c-2.949 0-5.333-2.384-5.333-5.333s2.384-5.333 5.333-5.333h15.989c2.949 0 5.333 2.384 5.333 5.333s-2.389 5.333-5.333 5.333z"/></g><g><path d="m101.306 245.451h-26.667c-2.949 0-5.333-2.384-5.333-5.333s2.384-5.333 5.333-5.333h26.667c2.949 0 5.333 2.384 5.333 5.333s-2.384 5.333-5.333 5.333z"/></g><g><path d="m213.386 224.101h-15.989c-2.949 0-5.333-2.384-5.333-5.333s2.384-5.333 5.333-5.333h15.989c2.949 0 5.333 2.384 5.333 5.333s-2.389 5.333-5.333 5.333z"/></g><g><path d="m127.999 224.101h-53.36c-2.949 0-5.333-2.384-5.333-5.333s2.384-5.333 5.333-5.333h53.36c2.949 0 5.333 2.384 5.333 5.333s-2.383 5.333-5.333 5.333z"/></g><g><path d="m213.386 266.784h-15.989c-2.949 0-5.333-2.384-5.333-5.333s2.384-5.333 5.333-5.333h15.989c2.949 0 5.333 2.384 5.333 5.333s-2.389 5.333-5.333 5.333z"/></g><g><path d="m133.343 266.784h-58.704c-2.949 0-5.333-2.384-5.333-5.333s2.384-5.333 5.333-5.333h58.704c2.949 0 5.333 2.384 5.333 5.333s-2.383 5.333-5.333 5.333z"/></g><g><path d="m213.359 202.613h-138.72c-2.949 0-5.333-2.384-5.333-5.333s2.384-5.333 5.333-5.333h138.72c2.949 0 5.333 2.384 5.333 5.333s-2.383 5.333-5.333 5.333z"/></g><g><path d="m213.386 288.043h-15.989c-2.949 0-5.333-2.384-5.333-5.333s2.384-5.333 5.333-5.333h15.989c2.949 0 5.333 2.384 5.333 5.333s-2.389 5.333-5.333 5.333z"/></g><g><path d="m90.629 288.043h-15.99c-2.949 0-5.333-2.384-5.333-5.333s2.384-5.333 5.333-5.333h15.989c2.949 0 5.333 2.384 5.333 5.333s-2.383 5.333-5.332 5.333z"/></g><g><path d="m245.37 314.651h-202.741c-2.949 0-5.333-2.384-5.333-5.333s2.384-5.333 5.333-5.333h202.741c2.949 0 5.333 2.384 5.333 5.333s-2.384 5.333-5.333 5.333z"/></g><g><path d="m282.65 31.979c-2.949 0-5.333-2.384-5.333-5.333 0-8.811-7.163-15.979-15.968-15.979-8.816 0-15.989 7.168-15.989 15.979 0 2.949-2.384 5.333-5.333 5.333s-5.333-2.384-5.333-5.333c-.001-14.694 11.956-26.646 26.655-26.646 14.688 0 26.635 11.952 26.635 26.645-.001 2.95-2.385 5.334-5.334 5.334z"/></g><g><path d="m304.026 127.979c-14.693 0-26.645-11.952-26.645-26.645 0-2.949 2.384-5.333 5.333-5.333s5.333 2.384 5.333 5.333c0 8.811 7.168 15.979 15.979 15.979s15.979-7.168 15.979-15.979c0-2.949 2.384-5.333 5.333-5.333s5.333 2.384 5.333 5.333c0 14.693-11.952 26.645-26.645 26.645z"/></g><g><path d="m47.994 31.979c-2.949 0-5.333-2.384-5.333-5.333 0-14.694 11.952-26.646 26.645-26.646 2.949 0 5.333 2.384 5.333 5.333s-2.384 5.333-5.333 5.333c-8.811 0-15.979 7.168-15.979 15.979 0 2.95-2.384 5.334-5.333 5.334z"/></g><g><path d="m261.349 10.667h-192.043c-2.949 0-5.333-2.384-5.333-5.333s2.384-5.334 5.333-5.334h192.043c2.949 0 5.333 2.384 5.333 5.333s-2.384 5.334-5.333 5.334z"/></g><g><path d="m282.65 106.667c-2.949 0-5.333-2.384-5.333-5.333v-74.689c0-2.949 2.384-5.333 5.333-5.333s5.333 2.384 5.333 5.333v74.688c0 2.95-2.384 5.334-5.333 5.334z"/></g><g><path d="m304.026 127.979h-64.032c-2.949 0-5.333-2.384-5.333-5.333s2.384-5.333 5.333-5.333h64.032c2.949 0 5.333 2.384 5.333 5.333s-2.384 5.333-5.333 5.333z"/></g><g><path d="m325.338 106.667c-2.949 0-5.333-2.384-5.333-5.333v-26.678c0-2.949 2.384-5.333 5.333-5.333s5.333 2.384 5.333 5.333v26.677c0 2.95-2.384 5.334-5.333 5.334z"/></g><g><path d="m261.338 341.323h-234.688c-8.821 0-16-7.179-16-16v-32.027c0-8.821 7.179-16 16-16h21.323c2.949 0 5.333 2.384 5.333 5.333s-2.384 5.333-5.333 5.333h-21.323c-2.944 0-5.333 2.389-5.333 5.333v32.027c0 2.944 2.389 5.333 5.333 5.333h234.688c2.944 0 5.333-2.389 5.333-5.333v-32.027c0-2.944-2.384-5.333-5.312-5.333h-21.323c-2.949 0-5.333-2.384-5.333-5.333s2.384-5.333 5.333-5.333h21.323c8.811 0 15.979 7.179 15.979 16v32.027c0 8.821-7.179 16-16 16z"/></g><g><path d="m325.338 79.989c-1.365 0-2.731-.523-3.771-1.563l-10.666-10.666c-2.085-2.085-2.085-5.456 0-7.541s5.456-2.085 7.541 0l10.667 10.667c2.085 2.085 2.085 5.456 0 7.541-1.04 1.04-2.406 1.562-3.771 1.562z"/></g><g><path d="m304.026 79.973c-1.365 0-2.731-.523-3.771-1.563-2.085-2.085-2.085-5.456 0-7.541l10.645-10.651c2.085-2.085 5.456-2.085 7.541 0s2.085 5.456 0 7.541l-10.645 10.651c-1.039 1.041-2.405 1.563-3.77 1.563z"/></g><g><path d="m303.983 79.989c-1.365 0-2.731-.523-3.771-1.563l-10.666-10.666c-2.085-2.085-2.085-5.456 0-7.541s5.456-2.085 7.541 0l10.667 10.667c2.085 2.085 2.085 5.456 0 7.541-1.04 1.04-2.405 1.562-3.771 1.562z"/></g><g><path d="m282.661 79.973c-1.365 0-2.731-.523-3.771-1.563-2.085-2.085-2.085-5.456 0-7.541l10.656-10.651c2.085-2.085 5.456-2.085 7.541 0s2.085 5.456 0 7.541l-10.656 10.651c-1.04 1.041-2.405 1.563-3.77 1.563z"/></g><g><g><path d="m144.021 175.947c-19.952 0-38.704-7.771-52.8-21.872-29.115-29.115-29.115-76.491 0-105.605 14.101-14.101 32.848-21.872 52.8-21.872 19.947 0 38.704 7.771 52.8 21.872 29.109 29.115 29.109 76.491 0 105.605-14.096 14.101-32.854 21.872-52.8 21.872zm0-138.678c-17.104 0-33.179 6.656-45.259 18.747-24.96 24.96-24.96 65.563 0 90.523 12.085 12.091 28.155 18.747 45.259 18.747 17.099 0 33.173-6.661 45.259-18.747 24.955-24.96 24.955-65.563 0-90.523-12.086-12.085-28.161-18.747-45.259-18.747z"/></g></g></g><g><g><path d="m114.666 133.36c-10.293 0-18.667-8.373-18.667-18.667s8.373-18.667 18.667-18.667 18.667 8.373 18.667 18.667-8.374 18.667-18.667 18.667zm0-26.667c-4.411 0-8 3.589-8 8s3.589 8 8 8 8-3.589 8-8-3.589-8-8-8z"/></g><g><path d="m141.333 133.36c-10.293 0-18.667-8.373-18.667-18.667s8.373-18.667 18.667-18.667 18.667 8.373 18.667 18.667-8.374 18.667-18.667 18.667zm0-26.667c-4.411 0-8 3.589-8 8s3.589 8 8 8 8-3.589 8-8-3.59-8-8-8z"/></g><g><path d="m173.333 133.36c-2.949 0-5.333-2.384-5.333-5.333s2.384-5.333 5.333-5.333c4.411 0 8-3.589 8-8s-3.589-8-8-8c-2.949 0-5.333-2.384-5.333-5.333s2.384-5.333 5.333-5.333c10.293 0 18.667 8.373 18.667 18.667s-8.374 18.665-18.667 18.665z"/></g><g><path d="m127.999 106.688c-10.293 0-18.667-8.373-18.667-18.667s8.373-18.667 18.667-18.667 18.667 8.373 18.667 18.667-8.373 18.667-18.667 18.667zm0-26.667c-4.411 0-8 3.589-8 8s3.589 8 8 8 8-3.589 8-8-3.589-8-8-8z"/></g><g><path d="m159.999 106.688c-2.949 0-5.333-2.384-5.333-5.333s2.384-5.333 5.333-5.333c4.411 0 8-3.589 8-8s-3.589-8-8-8c-2.949 0-5.333-2.384-5.333-5.333s2.384-5.333 5.333-5.333c10.293 0 18.667 8.373 18.667 18.667s-8.373 18.665-18.667 18.665z"/></g><g><path d="m173.333 133.36h-58.667c-2.949 0-5.333-2.384-5.333-5.333s2.384-5.333 5.333-5.333h58.667c2.949 0 5.333 2.384 5.333 5.333s-2.384 5.333-5.333 5.333z"/></g><g><path d="m173.333 106.693h-58.667c-2.949 0-5.333-2.384-5.333-5.333s2.384-5.333 5.333-5.333h58.667c2.949 0 5.333 2.384 5.333 5.333s-2.384 5.333-5.333 5.333z"/></g><g><path d="m159.999 80.021h-32c-2.949 0-5.333-2.384-5.333-5.333s2.384-5.333 5.333-5.333h32c2.949 0 5.333 2.384 5.333 5.333.001 2.949-2.383 5.333-5.333 5.333z"/></g></g></g></g></svg>