<?xml version="1.0"?>
<svg xmlns="http://www.w3.org/2000/svg" class="" viewBox="0 0 511 511.9" width="512px" height="512px"><g><path class="active-path" d="m 510.949 150.5 c -1.19922 -27.1992 -5.59766 -45.8984 -11.8984 -62.1016 c -6.5 -17.1992 -16.5 -32.5977 -29.6016 -45.3984 c -12.8008 -13 -28.3008 -23.1016 -45.3008 -29.5 c -16.2969 -6.30078 -34.8984 -10.6992 -62.0977 -11.8984 c -27.4023 -1.30078 -36.1016 -1.60156 -105.602 -1.60156 s -78.1992 0.300781 -105.5 1.5 c -27.1992 1.19922 -45.8984 5.60156 -62.0977 11.8984 c -17.2031 6.5 -32.6016 16.5 -45.4023 29.6016 c -13 12.8008 -23.0977 28.3008 -29.5 45.3008 c -6.30078 16.3008 -10.6992 34.8984 -11.8984 62.0977 c -1.30078 27.4023 -1.60156 36.1016 -1.60156 105.602 s 0.300781 78.1992 1.5 105.5 c 1.19922 27.1992 5.60156 45.8984 11.9023 62.1016 c 6.5 17.1992 16.5977 32.5977 29.5977 45.3984 c 12.8008 13 28.3008 23.1016 45.3008 29.5 c 16.3008 6.30078 34.8984 10.6992 62.1016 11.8984 c 27.2969 1.20312 36 1.5 105.5 1.5 s 78.1992 -0.296876 105.5 -1.5 c 27.1992 -1.19922 45.8984 -5.59766 62.0977 -11.8984 c 34.4023 -13.3008 61.6016 -40.5 74.9023 -74.8984 c 6.29688 -16.3008 10.6992 -34.9023 11.8984 -62.1016 c 1.19922 -27.3008 1.5 -36 1.5 -105.5 s -0.101562 -78.1992 -1.30078 -105.5 Z m -46.0977 209 c -1.10156 25 -5.30078 38.5 -8.80078 47.5 c -8.60156 22.3008 -26.3008 40 -48.6016 48.6016 c -9 3.5 -22.5977 7.69922 -47.5 8.79688 c -27 1.20312 -35.0977 1.5 -103.398 1.5 s -76.5 -0.296876 -103.402 -1.5 c -25 -1.09766 -38.5 -5.29688 -47.5 -8.79688 c -11.0977 -4.10156 -21.1992 -10.6016 -29.3984 -19.1016 c -8.5 -8.30078 -15 -18.3008 -19.1016 -29.3984 c -3.5 -9 -7.69922 -22.6016 -8.79688 -47.5 c -1.20312 -27 -1.5 -35.1016 -1.5 -103.402 s 0.296876 -76.5 1.5 -103.398 c 1.09766 -25 5.29688 -38.5 8.79688 -47.5 c 4.10156 -11.1016 10.6016 -21.1992 19.2031 -29.4023 c 8.29688 -8.5 18.2969 -15 29.3984 -19.0977 c 9 -3.5 22.6016 -7.69922 47.5 -8.80078 c 27 -1.19922 35.1016 -1.5 103.398 -1.5 c 68.4023 0 76.5 0.300781 103.402 1.5 c 25 1.10156 38.5 5.30078 47.5 8.80078 c 11.0977 4.09766 21.1992 10.5977 29.3984 19.0977 c 8.5 8.30078 15 18.3008 19.1016 29.4023 c 3.5 9 7.69922 22.5977 8.80078 47.5 c 1.19922 27 1.5 35.0977 1.5 103.398 s -0.300781 76.3008 -1.5 103.301 Z m 0 0" data-original="#000000" data-old_color="#000000" fill="#FFFFFF"/><path class="active-path" d="m 256.449 124.5 c -72.5977 0 -131.5 58.8984 -131.5 131.5 s 58.9023 131.5 131.5 131.5 c 72.6016 0 131.5 -58.8984 131.5 -131.5 s -58.8984 -131.5 -131.5 -131.5 Z m 0 216.801 c -47.0977 0 -85.3008 -38.1992 -85.3008 -85.3008 s 38.2031 -85.3008 85.3008 -85.3008 c 47.1016 0 85.3008 38.1992 85.3008 85.3008 s -38.1992 85.3008 -85.3008 85.3008 Z m 0 0" data-original="#000000" data-old_color="#000000" fill="#FFFFFF"/><path class="active-path" d="m 423.852 119.301 c 0 16.9531 -13.7461 30.6992 -30.7031 30.6992 c -16.9531 0 -30.6992 -13.7461 -30.6992 -30.6992 c 0 -16.957 13.7461 -30.6992 30.6992 -30.6992 c 16.957 0 30.7031 13.7422 30.7031 30.6992 Z m 0 0" data-original="#000000" data-old_color="#000000" fill="#FFFFFF"/></g> </svg>
