<?xml version="1.0"?>
<svg xmlns="http://www.w3.org/2000/svg" xmlns:xlink="http://www.w3.org/1999/xlink" class="" id="Capa_1" style="enable-background:new 0 0 384 384;" viewBox="0 0 384 384" x="0px" y="0px" width="512px" height="512px" xml:space="preserve" version="1.1"><g><g>
	<g>
		<path class="active-path" d="M 353.188 252.052 c -23.51 0 -46.594 -3.677 -68.469 -10.906 c -10.719 -3.656 -23.896 -0.302 -30.438 6.417 l -43.177 32.594 c -50.073 -26.729 -80.917 -57.563 -107.281 -107.26 l 31.635 -42.052 c 8.219 -8.208 11.167 -20.198 7.635 -31.448 c -7.26 -21.99 -10.948 -45.063 -10.948 -68.583 C 132.146 13.823 118.323 0 101.333 0 H 30.813 C 13.823 0 0 13.823 0 30.813 C 0 225.563 158.438 384 353.188 384 c 16.99 0 30.813 -13.823 30.813 -30.813 v -70.323 C 384 265.875 370.177 252.052 353.188 252.052 Z" data-original="#000000" data-old_color="#000000" fill="#FFFFFF"/>
	</g>
</g></g> </svg>
