<?xml version="1.0"?>
<svg xmlns="http://www.w3.org/2000/svg" xmlns:xlink="http://www.w3.org/1999/xlink" class="" id="Layer_1" style="enable-background:new 0 0 308 308;" viewBox="0 0 308 308" x="0px" y="0px" width="512px" height="512px" xml:space="preserve" version="1.1"><g><g id="XMLID_468_">
	<path class="active-path" id="XMLID_469_" d="M 227.904 176.981 c -0.6 -0.288 -23.054 -11.345 -27.044 -12.781 c -1.629 -0.585 -3.374 -1.156 -5.23 -1.156 c -3.032 0 -5.579 1.511 -7.563 4.479 c -2.243 3.334 -9.033 11.271 -11.131 13.642 c -0.274 0.313 -0.648 0.687 -0.872 0.687 c -0.201 0 -3.676 -1.431 -4.728 -1.888 c -24.087 -10.463 -42.37 -35.624 -44.877 -39.867 c -0.358 -0.61 -0.373 -0.887 -0.376 -0.887 c 0.088 -0.323 0.898 -1.135 1.316 -1.554 c 1.223 -1.21 2.548 -2.805 3.83 -4.348 c 0.607 -0.731 1.215 -1.463 1.812 -2.153 c 1.86 -2.164 2.688 -3.844 3.648 -5.79 l 0.503 -1.011 c 2.344 -4.657 0.342 -8.587 -0.305 -9.856 c -0.531 -1.062 -10.012 -23.944 -11.02 -26.348 c -2.424 -5.801 -5.627 -8.502 -10.078 -8.502 c -0.413 0 0 0 -1.732 0.073 c -2.109 0.089 -13.594 1.601 -18.672 4.802 c -5.385 3.395 -14.495 14.217 -14.495 33.249 c 0 17.129 10.87 33.302 15.537 39.453 c 0.116 0.155 0.329 0.47 0.638 0.922 c 17.873 26.102 40.154 45.446 62.741 54.469 c 21.745 8.686 32.042 9.69 37.896 9.69 c 0.001 0 0.001 0 0.001 0 c 2.46 0 4.429 -0.193 6.166 -0.364 l 1.102 -0.105 c 7.512 -0.666 24.02 -9.22 27.775 -19.655 c 2.958 -8.219 3.738 -17.199 1.77 -20.458 C 233.168 179.508 230.845 178.393 227.904 176.981 Z" data-original="#000000" data-old_color="#000000" fill="#FFFFFF"/>
	<path class="active-path" id="XMLID_470_" d="M 156.734 0 C 73.318 0 5.454 67.354 5.454 150.143 c 0 26.777 7.166 52.988 20.741 75.928 L 0.212 302.716 c -0.484 1.429 -0.124 3.009 0.933 4.085 C 1.908 307.58 2.943 308 4 308 c 0.405 0 0.813 -0.061 1.211 -0.188 l 79.92 -25.396 c 21.87 11.685 46.588 17.853 71.604 17.853 C 240.143 300.27 308 232.923 308 150.143 C 308 67.354 240.143 0 156.734 0 Z M 156.734 268.994 c -23.539 0 -46.338 -6.797 -65.936 -19.657 c -0.659 -0.433 -1.424 -0.655 -2.194 -0.655 c -0.407 0 -0.815 0.062 -1.212 0.188 l -40.035 12.726 l 12.924 -38.129 c 0.418 -1.234 0.209 -2.595 -0.561 -3.647 c -14.924 -20.392 -22.813 -44.485 -22.813 -69.677 c 0 -65.543 53.754 -118.867 119.826 -118.867 c 66.064 0 119.812 53.324 119.812 118.867 C 276.546 215.678 222.799 268.994 156.734 268.994 Z" data-original="#000000" data-old_color="#000000" fill="#FFFFFF"/>
</g></g> </svg>
